<svg width="127" height="128" viewBox="0 0 127 128" fill="none" xmlns="http://www.w3.org/2000/svg">
<ellipse cx="63.5" cy="64" rx="54.5703" ry="55" fill="#0A0D11"/>
<path d="M35.9999 40.6381C34.4651 47.6203 28.9999 84.5266 28.9999 84.5266C28.5 92.4999 41.0001 94.4999 42.9999 84.9999L46.3953 56.5975L56.1162 75.0506C59.186 82.0329 67.4999 83.9999 70.4999 74.9999C74.9999 59.9999 79.9999 53.9999 93.9999 52.4999C94 46.5 93 43.5 91 38.5C89 34 81 33.4999 78.1162 37.6455L63.9999 62.4999L52.0232 40.6381C48.4418 32.6582 37.5348 33.6558 35.9999 40.6381Z" fill="#F7F7F7" stroke="#F7F7F7" stroke-width="0.5"/>
<path d="M94.3435 62.5C80.1922 64.8647 77.7633 78.2023 80.5 85.5C82 89.5 77.5361 90.3091 76.3435 83.8646C73.5 68.5 82.5 59 93.5 58.5C95.6429 58.5001 95.6938 62.2744 94.3435 62.5Z" fill="#F7F7F7" stroke="#F7F7F7" stroke-width="0.5"/>
<path d="M95.6937 72.5C87.6938 74.5 88.8878 82.9194 90.1937 87.5C91 90.3281 87.0891 90.2671 85.5001 85.5C82.5 76.5 87.4998 69 95.1937 68C96.9999 68 97.4633 72.0576 95.6937 72.5Z" fill="#F7F7F7" stroke="#F7F7F7" stroke-width="0.5"/>
</svg>
